<svg width="448" height="512" xmlns="http://www.w3.org/2000/svg" xmlns:xlink="http://www.w3.org/1999/xlink" overflow="hidden"><defs><clipPath id="clip0"><rect x="416" y="104" width="448" height="512"/></clipPath></defs><g clip-path="url(#clip0)" transform="translate(-416 -104)"><path d="M863.1 423.1 863.1 558.2C863.1 571.46 852.35 581.3 840 581.3L704.9 581.3C691.96 581.3 680.29 573.519 675.34 561.55 670.434 550.45 673.137 535.83 682.277 526.68L712.337 496.62 640 427.9 568.57 499.34 598.63 529.4C607.786 538.556 610.54 552.31 605.567 564.27 600.6 576.2 588.9 583.1 576 583.1L440 583.1C426.75 583.1 416.9 572.36 416.9 560L416.9 424.9C416.9 411.96 424.681 400.29 436.65 395.34 439.72 392.8 443.88 392 448 392 456.312 392 464.5 395.242 470.63 401.367L500.69 431.427 572.13 359.987 500.69 288.6 470.63 318.6C461.474 327.756 447.72 330.51 435.76 325.537 423.798 320.6 416.001 308.9 416.001 295.1L416.001 160C416.001 146.74 426.751 136.9 439.101 136.9L574.201 136.9C587.141 136.9 598.811 144.681 603.761 156.65 607.2 159.72 607.1 163.87 607.1 167.1 607.1 175.412 603.863 183.6 597.738 189.73L568.6 220.7 640.04 292.14 711.47 220.7 681.41 190.64C672.254 181.484 669.5 167.73 674.473 155.77 679.41 143.82 691.093 136.02 704.033 136.02L839.133 136.02C852.393 136.02 862.233 146.77 862.233 159.12L862.233 294.22C862.233 307.16 854.452 318.83 842.483 323.78 831.383 328.686 816.763 325.983 807.613 316.843L777.553 286.783 706.123 358.213 777.563 429.653 807.623 399.593C816.779 390.437 830.533 387.683 842.493 392.656 856.2 399.4 863.1 411.1 863.1 423.1Z" fill="#FFFFFF"/></g></svg>