<svg width="512" height="512" xmlns="http://www.w3.org/2000/svg" xmlns:xlink="http://www.w3.org/1999/xlink" xml:space="preserve" overflow="hidden"><defs><clipPath id="clip0"><rect x="384" y="104" width="512" height="512"/></clipPath></defs><g clip-path="url(#clip0)" transform="translate(-384 -104)"><path d="M895.1 471.1C895.1 515.28 852.12 551.1 800 551.1 747.88 551.1 704.9 515.28 704.9 472 704.9 427.82 747.88 392.9 800 392.9 811.28 392.9 821.95 394.82 832.01 397.798L832.01 252.1 576 328 575.998 536.1C575.1 580.2 533 616 479.1 616 425.2 616 384 580.2 384 536 384 491.82 426.98 456.9 479.1 456.9 490.38 456.9 501.05 458.82 511.1 461.798L511.1 230.5C511.1 217.53 521.16 203.87 533.51 199.98L852.61 105.49C856.1 104.661 861.3 104 864 104 881.66 104 895.97 118.34 896 135.99L895.1 471.1Z" fill="#FFFFFF"/></g></svg>